<svg xmlns="http://www.w3.org/2000/svg" viewBox="0 0 80 80" style="filter: drop-shadow(0 0 1.5px rgba(255,255,255,0.25)) drop-shadow(0 0 3px rgba(255,255,255,0.1))"><g transform="translate(4.00,35.58) scale(0.6792)"><g transform="translate(0,0)"><path d="M82.5664 12.4183V10.8097L84.1778 10.6167C84.7579 10.5523 84.9512 10.0376 85.0157 9.90892L89.0763 3.41031C89.3986 2.89557 89.0763 2.44517 88.6896 2.38083L86.5626 2.12346V0.514893H95.7151C96.2308 0.514893 96.5531 0.900948 96.7464 1.15832L102.096 9.32983C102.547 9.97326 102.87 10.488 103.385 10.5523L105.061 10.7454V12.4183H94.7483V10.8097L96.0374 10.681C96.682 10.6167 97.1976 10.295 96.682 9.58721L96.1663 8.81509H88.883L88.3029 9.71589C87.9806 10.295 88.3029 10.6167 88.8185 10.681L90.1076 10.8097V12.4183H82.5664ZM90.2365 6.62744H94.8772L92.4924 2.95991L90.2365 6.62744Z" fill="#FFFFFF"/> <path d="M75.7342 0.514893H63.939V2.12346L65.4214 2.25214C65.9371 2.31649 66.1949 2.70254 66.1949 3.28163C66.1949 3.79637 66.1949 9.20115 66.1949 9.65155C66.1949 10.1019 66.0015 10.488 65.5503 10.5523L63.939 10.7454V12.2896H75.7342C81.1483 12.2896 83.4687 9.65155 83.4687 6.17704C83.5332 3.15294 81.1483 0.514893 75.7342 0.514893ZM73.9294 10.1019H70.9001V2.76688H73.9294C76.8299 2.76688 78.0545 3.41031 78.0545 6.43441C78.0545 9.45852 76.8299 10.1019 73.9294 10.1019Z" fill="#FFFFFF"/> <path d="M0 12.4183H9.53928V10.8097L7.92792 10.6167C7.54119 10.5523 7.15446 10.3593 7.15446 9.52286V7.59258H14.5023V9.39418C14.5023 9.90892 14.4378 10.4237 13.7933 10.488L12.1175 10.681V12.4183H21.6567V10.8097L19.9809 10.6167C19.6587 10.5523 19.2719 10.295 19.2719 9.65155V3.41031C19.2719 2.76689 19.5297 2.38083 19.9809 2.31649L21.6567 2.12346V0.514893H12.1175V2.12346L13.7933 2.31649C14.3089 2.38083 14.5023 2.83123 14.5023 3.41031V5.27625H7.15446V3.41031C7.15446 2.70254 7.41228 2.38083 7.92792 2.31649L9.53928 2.12346V0.514893H0V2.12346L1.61137 2.31649C2.25591 2.38083 2.38482 2.83123 2.38482 3.47465V9.52286C2.38482 10.1663 2.19146 10.6167 1.61137 10.681L0 10.8741V12.4183Z" fill="#FFFFFF"/> <path d="M22.1079 6.36992C22.1079 2.63805 25.1373 0 31.8406 0C38.5438 0.0643426 41.5732 2.63805 41.5732 6.36992C41.5732 10.1661 38.5438 12.8042 31.8406 12.8042C25.1373 12.8042 22.1079 10.2305 22.1079 6.36992ZM31.8406 2.31634C29.1335 2.31634 27.5866 3.34582 27.5866 6.36992C27.5866 9.52271 29.1335 10.4879 31.8406 10.4879C34.5477 10.4879 36.0946 9.45837 36.0946 6.36992C36.0946 3.34582 34.5477 2.31634 31.8406 2.31634Z" fill="#FFFFFF"/> <path d="M42.0889 12.4183H49.6945V10.8097L48.0187 10.6167C47.5675 10.5523 47.2452 10.1663 47.2452 9.65155V3.60334L53.5618 11.9035C53.7551 12.1609 54.1419 12.3539 54.5286 12.3539H60.5229V3.41031C60.5229 2.95991 60.6518 2.38083 61.2319 2.31649L62.9722 2.12346V0.514893H55.3665V2.12346L57.0423 2.31649C57.6224 2.38083 57.7513 2.89557 57.7513 3.41031V9.26549L51.4348 1.02963C51.177 0.70792 50.9191 0.514893 50.468 0.514893H42.0889V2.12346L43.7002 2.31649C44.2803 2.38083 44.4737 2.70254 44.4737 3.47465V9.52286C44.4737 10.2306 44.2803 10.5523 43.7002 10.681L42.1533 10.8741V12.4183" fill="#FFFFFF"/></g></g></svg>