<svg xmlns="http://www.w3.org/2000/svg" viewBox="0 0 80 80" style="filter: drop-shadow(0 0 1.5px rgba(78,140,201,0.3)) drop-shadow(0 0 3px rgba(78,140,201,0.15))"><g transform="translate(4.00,20.36) scale(2.1818)"><g transform="translate(0,0)"><path fill-rule="evenodd" clip-rule="evenodd" d="M32.8744 9.28159C33.1278 6.45959 30.6987 4.34324 28.5529 3.13952C27.7538 2.70378 26.9137 2.35126 26.0636 2.02915C22.2582 0.690924 17.7849 0.22417 13.535 0.753258C9.61795 1.30292 5.81315 2.25731 2.82726 5.03845C1.40064 6.39726 0.550604 8.44173 1.24849 10.4021C2.15962 12.789 4.58871 14.3753 6.75424 15.2993C13.1603 17.9558 21.8737 17.8615 28.0773 14.8218C30.2024 13.7225 32.5809 11.8963 32.8744 9.28159ZM25.1854 3.11872C25.1402 3.09951 25.0946 3.08017 25.0515 3.05661C22.5116 2.33008 19.8396 1.89405 17.0062 1.91552C15.6904 1.9355 14.7391 3.19171 14.2027 4.25973C13.7983 5.11092 13.3326 6.12764 13.6761 7.10291C13.8585 7.42471 14.1521 7.64243 14.4758 7.72564C15.5667 7.9702 16.5763 7.67526 17.5639 7.38673C17.8313 7.30862 18.0971 7.23098 18.3624 7.16464C20.811 6.34566 23.2098 5.41156 25.3043 3.73094C25.3217 3.70918 25.3417 3.68743 25.3621 3.66523C25.4484 3.57121 25.5419 3.46936 25.4763 3.32652C25.4113 3.21465 25.2994 3.16712 25.1854 3.11872ZM11.8038 2.71422L11.8446 2.55824C11.7818 2.4392 11.6319 2.44163 11.5001 2.44376C11.4829 2.44404 11.4661 2.44431 11.4498 2.44431C10.0939 2.66203 8.80835 3.04617 7.57373 3.52336C5.48879 4.42615 2.98929 5.75454 2.37199 8.24399C1.98799 10.1531 3.32326 11.7615 4.80108 12.7573C4.87931 12.7932 4.959 12.849 5.03995 12.9057C5.2624 13.0616 5.49438 13.2242 5.73199 12.9959C7.39191 9.4164 9.14289 5.81628 11.8038 2.71422ZM31.5083 9.54107C31.8931 7.79812 30.7595 6.3558 29.5045 5.29763C29.4115 5.23402 29.3211 5.16298 29.2304 5.09175C28.9662 4.88413 28.7 4.67496 28.3612 4.64387C28.2798 4.67519 28.2091 4.71635 28.1384 4.79896C27.6529 5.89919 27.1266 7.01999 26.5593 8.10919C25.3352 10.5271 23.9385 12.913 22.0962 15.0395L22.0659 15.1848C22.0826 15.2869 22.1734 15.2916 22.2502 15.2956C22.2674 15.2965 22.2839 15.2974 22.2987 15.2993C23.5695 15.1773 24.7425 14.7759 25.9047 14.3781L25.9729 14.3547C28.1483 13.4836 30.8805 12.114 31.5083 9.54107ZM19.4654 13.9219C19.9759 12.9669 20.5071 11.9732 20.2847 10.7964C20.123 10.3603 19.6677 10.0388 19.2124 9.9768C18.1155 9.83212 17.0787 10.1387 16.1022 10.4274L16.0849 10.4325C15.9672 10.4729 15.8495 10.5132 15.7318 10.5536C13.2169 11.4149 10.6918 12.2797 8.55555 14.0544C8.45431 14.1478 8.38362 14.2817 8.43424 14.4275C8.49504 14.5316 8.60646 14.6035 8.71729 14.6351C11.1665 15.3923 13.8076 15.8185 16.5105 15.8597C17.7145 15.9838 18.7164 15.1537 19.3233 14.1892C19.37 14.1004 19.4176 14.0113 19.4654 13.9219Z" fill="white"/></g></g></svg>