<?xml version="1.0" encoding="UTF-8"?>
<svg id="Layer_1" xmlns="http://www.w3.org/2000/svg" version="1.1" viewBox="0 0 486.1 120.7">
  <!-- Generator: Adobe Illustrator 29.1.0, SVG Export Plug-In . SVG Version: 2.1.0 Build 142)  -->
  <defs>
    <style>
      .st0 {
        fill: #fff;
      }
    </style>
  </defs>
  <g>
    <polygon class="st0" points="51.6 41.4 24.6 41.4 5 84.1 31.9 84.1 51.6 41.4"/>
    <polygon class="st0" points="58.6 26 31.7 26 27 36.2 53.9 36.2 58.6 26"/>
    <polygon class="st0" points="320.8 41.4 293.9 41.4 274.3 84.1 301.2 84.1 320.8 41.4"/>
    <polygon class="st0" points="327.9 26 301 26 296.3 36.2 323.2 36.2 327.9 26"/>
    <path class="st0" d="M76,68.7h1.7l4.7,15.4h26.9l-4.7-15.4h-1.7c7.4,0,16.3-6.1,19.7-13.7l7.1-15.4c3.5-7.6.3-13.7-7.2-13.7h-53.8l-26.7,58.2h26.9l7.1-15.4ZM93.3,31.1h13.5l-14.9,32.5h-13.5l14.9-32.5Z"/>
    <path class="st0" d="M355.5,46.5h13.5l-17.3,37.6h26.9l13.3-29.1c3.5-7.6.3-13.7-7.2-13.7h-53.9l-19.6,42.8h26.9l17.4-37.6Z"/>
    <path class="st0" d="M192.9,41.4h-47.1l-2.4,5.1h33.7l-2.4,5.1h-26.9c-4.3,0-9,2-12.9,5.1-2.9,2.3-5.4,5.3-6.9,8.6l-2.4,5.1c-3.5,7.6-.3,13.7,7.2,13.7h53.9l13.3-29.1c3.6-7.5.4-13.6-7.1-13.6ZM162.2,79h-13.5l10.2-22.2h13.5l-10.2,22.2Z"/>
    <path class="st0" d="M210.3,84.1h40.4c7.4,0,16.3-6.1,19.7-13.7l.8-1.7h-26.9l-4.7,10.3h-13.5l14.9-32.5h13.5l-4.7,10.3h26.9l.8-1.7c3.5-7.6.3-13.7-7.2-13.7h-40.4c-4.3,0-9,2-12.9,5.1-2.9,2.3-5.4,5.3-6.9,8.6l-7.1,15.4c-3.3,7.5,0,13.6,7.3,13.6Z"/>
    <path class="st0" d="M421.8,41.4h0c-4.3,0-9,2-12.9,5.1-2.9,2.3-5.4,5.3-6.9,8.6l-7.1,15.4c-1.5,3.2-1.7,6.2-1,8.6,1,3.1,3.9,5.1,8.2,5.1h26.9l-2.4,5.1H2.4l-2.4,5.1h437.9c4.3,0,9-2,12.9-5.1,2.9-2.3,5.4-5.3,6.9-8.6l18-39.3h-53.9ZM431.5,79h-13.5l14.9-32.5h13.5l-14.9,32.5Z"/>
  </g>
  <path class="st0" d="M478.4,39.3c0-.4,0-.7,0-1s.2-.6.4-.9c.2-.3.4-.6.6-.8.2-.2.5-.4.8-.6.3-.2.6-.3.9-.4.3,0,.7-.2,1-.2s.7,0,1,0,.6.2.9.4c.3.2.6.4.8.6.2.2.4.5.6.8.2.3.3.6.4.9,0,.3.2.7.2,1s0,.7,0,1-.2.6-.4.9c-.2.3-.4.6-.6.8-.2.2-.5.4-.8.6-.3.2-.6.3-.9.4-.3,0-.7.2-1,.2s-.7,0-1,0-.6-.2-.9-.4c-.3-.2-.6-.4-.8-.6-.2-.2-.4-.5-.6-.8-.2-.3-.3-.6-.4-.9-.2-.3-.2-.7-.2-1ZM479.1,39.3c0,.5,0,.9.3,1.3.2.4.4.7.7,1s.6.5,1,.7.8.2,1.2.2.9,0,1.2-.3c.4-.2.7-.4,1-.7s.5-.6.7-1,.2-.8.2-1.3,0-.6,0-.9c0-.3-.2-.5-.3-.8,0-.2-.3-.5-.5-.7s-.4-.4-.7-.5c-.2,0-.5-.2-.8-.3s-.6,0-.9,0-.6,0-.8,0c-.3,0-.5.2-.8.3-.2,0-.4.3-.6.5-.2.2-.3.4-.5.7,0,.2-.2.5-.3.8,0,.4,0,.7,0,1ZM481.7,39.8v1.7h-1.1v-4.7c0,0,1.6,0,1.6,0,.7,0,1.1,0,1.4.3.3.2.5.6.5,1s0,.6-.2.8c-.2.2-.4.4-.7.5,0,0,0,0,.2.2q0,0,.2.2l1,1.6h-1.1c-.2,0-.3,0-.3-.2l-.8-1.4h0c0,0,0,0-.2,0h-.4ZM481.7,39h.5c.2,0,.3,0,.4,0,0,0,.2,0,.3,0q0,0,0-.2v-.6c0,0,0,0,0-.2q0,0-.2,0h-1v1.3Z"/>
</svg>