<?xml version="1.0" encoding="UTF-8"?>
<svg id="Layer_1" xmlns="http://www.w3.org/2000/svg" version="1.1" viewBox="0 0 680.7 154.8">
  <!-- Generator: Adobe Illustrator 29.1.0, SVG Export Plug-In . SVG Version: 2.1.0 Build 142)  -->
  <defs>
    <style>
      .st0 {
        fill: #fff;
      }
    </style>
  </defs>
  <path class="st0" d="M679.2,10c-.9.8-2,1.2-3.3,1.2s-2.4-.4-3.2-1.2c-.8-.8-1.2-1.9-1.2-3.1,0-1.2.6-2.3,1.5-3.1.9-.8,2-1.2,3.3-1.2s2.4.4,3.2,1.2c.8.8,1.2,1.9,1.2,3.1,0,1.3-.5,2.3-1.5,3.1ZM673.2,9.6c.7.7,1.6,1.1,2.7,1.1s2.1-.4,2.8-1.1c.8-.7,1.2-1.6,1.2-2.7,0-1.1-.3-2-1-2.7-.7-.7-1.6-1.1-2.7-1.1s-2.1.4-2.8,1.1c-.8.7-1.2,1.6-1.2,2.7,0,1.1.3,2,1,2.7ZM674.2,9.1l.2-4.7h2.3c.5,0,.8.1,1.1.4.3.2.4.6.4.9,0,.6-.4,1-1,1.1h0c.5.1.7.5.7,1,0,.1,0,.2,0,.4,0,.1,0,.3,0,.3,0,0,0,.1,0,.2,0,0,0,.1,0,.2,0,0,0,0,0,0h0s-.8,0-.8,0c0,0-.1-.4-.2-1.1,0-.6-.3-.9-.9-.9h-1v1.9h-.9ZM675.2,6.6h1.2c.6,0,.9-.2.9-.7,0-.5-.3-.7-.8-.7h-1.3v1.5c0,0,0,0,0,0Z"/>
  <path class="st0" d="M333.2,3h21l-15.1,55.1h11.9l-4.4,16.5h-32.9L333.2,3Z"/>
  <path class="st0" d="M385.8,29.3h11l-4.5,16.5h-11l-3.4,12.4h14.5l-4.4,16.5h-35.5L371.9,3h35.5l-4.5,16.5h-14.5l-2.6,9.8Z"/>
  <path class="st0" d="M459.9,74.5h-14.3l2.8-25c.5-4.4,1.4-11.2,2-17-1.4,5.4-3.1,11.7-4.5,17l-6.8,25h-18.3L440.3,3h28.7l-3.2,20.9c-.7,4.1-1.5,8.6-2.3,13.1,1.6-4.5,3-8.9,4.7-13.1l8.2-20.9h30.2l-19.5,71.5h-20.7l6.8-25c1.4-5.3,3.5-12.2,5.2-17.8-2.6,5.9-5.8,13.4-7.8,17.8l-10.8,25Z"/>
  <path class="st0" d="M522.7,66.2h-7.8l-3,8.4h-19.2l29.7-71.5h29.1l-9.4,71.5h-20.9l1.5-8.4h0ZM520.3,51.3h5.2c2.5-13.4,4.7-25,7.2-36-3.6,11-7.5,22.6-12.4,36Z"/>
  <path class="st0" d="M574.1,54.7c.3-5.2.6-10.2,1.3-15.7-1.3,5.6-2.6,10.5-4,15.7l-5.4,19.8h-18.1l19.5-71.5h24.7l-1.7,16.1c-.5,5.1-1.1,10.2-1.9,15.6,1.4-5.5,2.7-10.5,4.1-15.6l4.4-16.1h18.1l-19.5,71.5h-22.9l1.3-19.8h0Z"/>
  <path class="st0" d="M632.4,54.2c1.3-5.2-1.1-7.1-7.7-12.1-6.6-5.3-10.5-9.6-7.5-20.7l.4-1.5c3.6-13.5,8.6-17.4,23.4-17.4h7.8c14.8,0,17.5,3.9,13.9,17.4l-2,7.6h-19.8l1.5-5.7c.6-2,.4-2.8-1.2-2.8h-.5c-1.6,0-2.2.7-2.6,2.1l-.2.7c-1.4,5.2,1.4,7.1,7.7,12.1,6.7,5.4,10.7,9.8,7.6,20.9l-.8,2.9c-3.7,13.5-8.6,17.4-23.4,17.4h-7.8c-14.8,0-17.7-3.9-13.9-17.4l2.6-9.7h19.7l-2.2,7.9c-.6,2-.4,2.8,1.2,2.8h.6c1.5,0,2.2-.7,2.8-2.8l.4-1.6h0Z"/>
  <path class="st0" d="M318.9,135.6c-.6,2-.4,2.8,1.2,2.8h.5c1.6,0,2.2-.7,2.8-2.8l14.5-52.8h19.8l-14.9,54.7c-3.7,13.5-8.6,17.4-23.4,17.4h-7.9c-14.8,0-17.7-3.9-13.9-17.4l14.9-54.7h21l-14.5,52.8h0Z"/>
  <path class="st0" d="M366.7,82.8h21l-15.1,55.1h11.9l-4.4,16.5h-32.9l19.5-71.5h0Z"/>
  <path class="st0" d="M388.5,154.3l15-55.2h-9l4.5-16.4h39.1l-4.5,16.4h-9l-15,55.2h-21Z"/>
  <path class="st0" d="M445.2,82.8h21l-19.5,71.5h-21l19.5-71.5Z"/>
  <path class="st0" d="M495.1,154.3h-14.3l2.8-25c.5-4.4,1.4-11.2,2-17-1.4,5.4-3.1,11.7-4.5,17l-6.8,25h-18.3l19.5-71.5h28.7l-3.2,21c-.7,4.1-1.5,8.6-2.3,13.1,1.6-4.5,3-8.9,4.7-13.1l8.2-21h30.2l-19.5,71.5h-20.7l6.8-25c1.4-5.3,3.5-12.2,5.2-17.8-2.6,5.9-5.8,13.4-7.8,17.8l-10.8,25h0Z"/>
  <path class="st0" d="M559.3,145.9h-7.8l-3,8.4h-19.2l29.7-71.5h29.1l-9.4,71.5h-20.9l1.5-8.4h0ZM556.8,131.1h5.2c2.5-13.4,4.7-25,7.2-36-3.6,11-7.5,22.6-12.4,36Z"/>
  <path class="st0" d="M588.5,154.3l15-55.2h-9l4.5-16.4h39.1l-4.5,16.4h-9l-15,55.2h-21Z"/>
  <path class="st0" d="M659,109h11l-4.5,16.5h-11l-3.4,12.4h14.5l-4.4,16.5h-35.5l19.5-71.5h35.5l-4.5,16.5h-14.5l-2.6,9.8h0Z"/>
  <path class="st0" d="M142.2,153.8H20.9c-13.3,0-22.9-12.6-19.5-25.4L31.8,15.2C34.1,6.4,42.1.3,51.3.3h34.3l-27.6,103c-.7,2.6,1.2,5.1,3.9,5.1h65.1,0s0,0,0,0h0s15.3,45.4,15.3,45.4h0Z"/>
  <path class="st0" d="M308.2,25.7l-30.4,113.2c-2.4,8.8-10.4,14.9-19.5,14.9h-30.3l30.3-113-5.1-10.6-33.2,123.6h-43.6l30.3-112.9-5.1-10.7-33.2,123.6h-18.3l-15.3-45.4h0,0s18.1-67.6,18.1-67.6L130.3.3h158.4c13.3,0,22.9,12.6,19.5,25.4Z"/>
</svg>