<svg xmlns="http://www.w3.org/2000/svg" width="160" height="63.992" viewBox="0 0 160 63.992">
<path style="fill:#ffffff;stroke-width:0.39235" d="M 4.6301,25.464 0.11801,36.567 C 0.03954,36.763 0,36.96 0,37.195 c 0,0.236 0.03954,0.431 0.11801,0.628 0.0785,0.196 0.19556,0.353 0.3525,0.47 0.15694,0.118 0.35327,0.197 0.54949,0.197 h 23.933 l 1.216,-2.943 H 5.1006 L 4.7863,35.193 8.6709,25.464 Z m 28.3269,0 -5.296,13.026 h 4.08 l 5.297,-13.026 z m 8.357,0 c -0.235,0 -0.47,0.08 -0.706,0.196 -0.235,0.117 -0.471,0.274 -0.706,0.471 -0.235,0.196 -0.432,0.391 -0.628,0.627 -0.196,0.235 -0.314,0.432 -0.392,0.628 l -3.727,9.221 c -0.08,0.196 -0.118,0.392 -0.118,0.627 0,0.235 0.04,0.432 0.118,0.628 0.08,0.196 0.196,0.352 0.353,0.47 0.157,0.118 0.353,0.196 0.549,0.196 H 59.99 l 2.668,-6.551 h -4.08 l -1.452,3.57 H 40.177 l -0.314,-0.354 2.55,-6.433 0.628,-0.354 h 21.03 l 1.177,-2.942 z m 26.719,0 -5.257,13.026 h 4.041 l 5.297,-13.026 z m 6.788,0 -5.257,13.026 h 4.08 21.03 l 1.177,-2.943 h -21.03 l 0.824,-2.001 h 21.03 l 1.256,-3.061 h -21.03 l 0.824,-2.04 h 20.99 l 1.217,-2.981 z m 27.819,0 -1.18,2.942 h 21.11 l 0.31,0.354 -0.66,1.686 h -20.05 c -0.2,0 -0.39,0.08 -0.63,0.197 -0.24,0.117 -0.47,0.275 -0.71,0.471 -0.19,0.196 -0.43,0.392 -0.58,0.627 -0.16,0.196 -0.279,0.393 -0.358,0.55 l -2.471,6.159 h 3.999 l 1.92,-4.747 0.52,-0.196 h 4.62 l 7.66,4.983 h 6.82 l -7.73,-4.944 h 8.09 c 0.19,0 0.43,-0.04 0.66,-0.196 0.24,-0.157 0.51,-0.353 0.75,-0.55 0.27,-0.235 0.47,-0.431 0.67,-0.667 0.19,-0.196 0.31,-0.431 0.39,-0.588 l 1.68,-4.159 c 0.1,-0.196 0.12,-0.393 0.12,-0.628 0,-0.236 0,-0.431 -0.12,-0.627 -0.1,-0.197 -0.19,-0.354 -0.35,-0.471 -0.16,-0.118 -0.35,-0.196 -0.55,-0.196 z" id="path4"></path><path style="fill:#ffffff;stroke-width:0.39235" id="path18" d="m 160,31.937 c 0,0 -1.77,-2.315 -5.53,-5.61 C 151.8,11.378 138.73,0 123,0 116.65,0 110.72,1.8833 105.74,5.1006 101.34,4.3943 96.675,3.845 91.692,3.5704 c -0.157,0.1962 -0.314,0.3531 -0.431,0.5493 4.551,0.5885 8.71,1.4124 12.519,2.3933 -5.261,4.002 -9.263,9.534 -11.264,16.008 h 2.982 c 2.158,-6.199 6.352,-11.496 11.772,-14.9879 26.33,8.0829 32.56,24.4439 32.56,24.4439 0,0 -6.27,16.361 -32.64,24.482 -5.41,-3.492 -9.573,-8.749 -11.731,-14.948 h -2.982 c 2.001,6.434 5.964,11.966 11.223,15.968 -3.729,0.981 -7.849,1.766 -12.322,2.354 0.157,0.197 0.314,0.353 0.471,0.55 4.905,-0.314 9.531,-0.824 13.851,-1.53 4.98,3.256 10.95,5.139 17.34,5.139 15.73,0 28.84,-11.417 31.47,-26.366 3.76,-3.374 5.49,-5.689 5.49,-5.689 z M 110.13,5.8852 c 3.89,-1.9225 8.28,-3.021 12.91,-3.021 13.07,0 24.13,8.6318 27.82,20.5198 C 143.01,17.42 129.79,9.8087 110.13,5.8852 Z m 40.73,34.6058 c -3.65,11.888 -14.75,20.559 -27.82,20.559 -4.67,0 -9.06,-1.099 -12.99,-3.061 19.74,-3.884 32.96,-11.496 40.81,-17.498 z" class="st0"></path>
</svg>