<svg xmlns="http://www.w3.org/2000/svg" viewBox="183 258 252 95" width="252" height="95">
  <!-- RaceCor.io logomark — white with layered opacity -->
  <!-- Brightest layer (leftmost chevrons) -->
  <path fill="#ffffff" fill-opacity="1" d="M 247.25 260.863 L 219.082 305.148 L 219.082 305.789 L 245.641 304.668 L 275.41 260.863 Z"/>
  <path fill="#ffffff" fill-opacity="1" d="M 242.406 260.863 L 214.246 260.863 L 214.164 260.992 L 202.535 260.863 L 187.391 284.605 L 199.453 284.121 L 186.074 305.148 L 186.074 305.789 L 213.043 349.621 L 243.605 349.621 L 212.633 304.668 Z"/>
  <!-- Medium layer (center chevron) -->
  <path fill="#ffffff" fill-opacity="0.6" d="M 308.879 260.863 L 280.719 260.863 L 252.547 305.148 L 252.547 305.789 L 279.516 349.621 L 310.078 349.621 L 279.105 304.668 Z"/>
  <!-- Darkest / most transparent layer (rightmost chevrons) -->
  <path fill="#ffffff" fill-opacity="0.3" d="M 342.383 260.863 L 314.223 260.863 L 286.051 305.148 L 286.051 305.789 L 313.023 349.621 L 343.582 349.621 L 312.613 304.668 Z"/>
  <path fill="#ffffff" fill-opacity="0.3" d="M 375.121 348.094 L 345.578 305.215 L 354.035 292.773 L 375.297 324.055 L 391.219 324.727 Z M 404.66 305.215 L 396.813 316.609 L 373.688 280.25 L 362.547 280.25 L 375.352 261.41 L 348.191 261.41 L 319.02 305.695 L 319.02 306.336 L 349.988 350.168 L 404.25 350.168 L 431.223 306.336 L 431.223 305.695 Z"/>
</svg>
